<?xml version="1.0" encoding="UTF-8"?>
<svg version="1.1" xmlns="http://www.w3.org/2000/svg" width="512" height="512">
<path d="M0 0 C1.9734137 0.00031723 1.9734137 0.00031723 3.98669434 0.00064087 C33.51450153 0.03115707 62.14453975 2.18869839 90.875 9.375 C91.87998535 9.62088867 92.8849707 9.86677734 93.92041016 10.12011719 C144.95226607 22.80843076 190.60300558 50.83200278 219.0625 95.75 C220.35575705 97.94527667 221.62491782 100.15485405 222.875 102.375 C223.25720703 103.04660156 223.63941406 103.71820313 224.03320312 104.41015625 C250.07332563 150.54780595 257.57465457 203.62080445 257.3125 255.9375 C257.30793793 257.88718185 257.30793793 257.88718185 257.30328369 259.87625122 C257.06117787 330.17033287 241.65918436 399.14076743 191.5 451.0625 C155.94706661 485.80046644 108.07278252 501.98717064 59.875 509.375 C58.83279297 509.54016113 57.79058594 509.70532227 56.71679688 509.87548828 C19.445513 515.48241602 -21.90522833 515.26511363 -59.125 509.375 C-60.24986816 509.20339355 -61.37473633 509.03178711 -62.53369141 508.85498047 C-92.41128155 504.17182829 -121.43577919 495.74447077 -148.125 481.375 C-149.87490234 480.45460938 -149.87490234 480.45460938 -151.66015625 479.515625 C-165.95319575 471.71649183 -178.4396397 461.65120902 -190.125 450.375 C-191.02476562 449.53839844 -191.92453125 448.70179688 -192.8515625 447.83984375 C-235.92586916 406.68960554 -253.30334155 340.91173848 -255.23272705 283.14987183 C-255.28794529 279.85094483 -255.31527051 276.55326859 -255.328125 273.25390625 C-255.33513931 272.04331039 -255.34215363 270.83271454 -255.34938049 269.58543396 C-255.36678061 265.70275102 -255.37323208 261.82022049 -255.375 257.9375 C-255.37544186 257.27651306 -255.37588371 256.61552612 -255.37633896 255.93450928 C-255.38324211 236.24984349 -255.22216771 216.85660425 -252.125 197.375 C-251.94807617 196.23417969 -251.77115234 195.09335938 -251.58886719 193.91796875 C-249.12308498 178.46743708 -245.72981707 163.32858238 -241.125 148.375 C-240.87024902 147.54484375 -240.61549805 146.7146875 -240.35302734 145.859375 C-230.79264892 115.36206753 -215.00704735 88.56919834 -193.125 65.375 C-192.40441406 64.58996094 -191.68382812 63.80492187 -190.94140625 62.99609375 C-142.6462684 12.25769429 -66.80317678 -0.09937506 0 0 Z " fill="#006633" transform="translate(255.125,-0.375)"/>
<path d="M0 0 C6.93 0 13.86 0 21 0 C26.41992434 10.41195992 31.01780726 21.12640789 35.66015625 31.90136719 C37.81359653 36.88159023 39.99948561 41.84739043 42.1875 46.8125 C42.63947754 47.83883545 43.09145508 48.8651709 43.55712891 49.92260742 C46.16818054 55.84934432 48.78293134 61.77444678 51.3984375 67.69921875 C58.08678256 82.85010272 64.76929467 98.00354635 71.43356323 113.16503906 C72.21777049 114.94874348 73.00236705 116.7322768 73.78738403 118.515625 C77.95032591 127.97385401 82.06811281 137.44274364 86 147 C87.19416247 149.88121948 88.40256589 152.75567548 89.625 155.625 C89.91117187 156.31722656 90.19734375 157.00945312 90.4921875 157.72265625 C91.99309637 161.22250285 92.75544305 162.83696203 96 165 C96.1749147 164.44593475 96.34982941 163.89186951 96.53004456 163.3210144 C98.25839864 157.97575496 100.26320127 152.86787858 102.58984375 147.7578125 C102.9303476 147.00042282 103.27085144 146.24303314 103.62167358 145.46269226 C104.72304003 143.01501186 105.83028568 140.57003984 106.9375 138.125 C107.70841324 136.41387484 108.4788348 134.70252808 109.2487793 132.9909668 C110.78574675 129.57483091 112.32439885 126.1594623 113.86425781 122.74462891 C116.70313077 116.4440192 119.51088557 110.12976361 122.3125 103.8125 C123.27470136 101.64451428 124.23694046 99.47654532 125.19921875 97.30859375 C125.66376465 96.26171387 126.12831055 95.21483398 126.60693359 94.13623047 C127.9919664 91.01808617 129.38024187 87.90140611 130.76953125 84.78515625 C136.53712488 71.84115192 142.25173557 58.87501069 147.93844604 45.89532471 C158.84154148 21.01346318 158.84154148 21.01346318 164.0625 9.5 C164.46162598 8.61723389 164.86075195 7.73446777 165.27197266 6.82495117 C167.87350676 1.12649324 167.87350676 1.12649324 169 0 C170.41570123 -0.08651611 171.835595 -0.10704904 173.25390625 -0.09765625 C174.53491211 -0.09282227 174.53491211 -0.09282227 175.84179688 -0.08789062 C176.73962891 -0.07951172 177.63746094 -0.07113281 178.5625 -0.0625 C179.46419922 -0.05798828 180.36589844 -0.05347656 181.29492188 -0.04882812 C183.53001314 -0.03700225 185.76497437 -0.0205222 188 0 C187.40408354 5.484405 185.47990107 9.94754326 183.24609375 14.921875 C182.86695328 15.78073303 182.48781281 16.63959106 182.09718323 17.5244751 C180.88371264 20.26921558 179.66078771 23.00962292 178.4375 25.75 C177.64195009 27.54529475 176.84702266 29.34086547 176.05273438 31.13671875 C173.71007725 36.42816619 171.3559243 41.71444922 169 47 C167.61512382 50.10903647 166.23097588 53.21839566 164.84765625 56.328125 C164.52118103 57.06203964 164.19470581 57.79595428 163.8583374 58.55210876 C161.41190197 64.05820133 158.99327629 69.57611682 156.58282471 75.09803772 C153.6765852 81.75110122 150.73002553 88.38600359 147.77774048 95.01873779 C146.77076282 97.28127767 145.76457655 99.54416823 144.75854492 101.80712891 C141.25887919 109.67842087 137.75608306 117.5483123 134.25013733 125.41680908 C124.38401832 147.56197388 114.57325548 169.72645851 105 192 C98.07 192 91.14 192 84 192 C79.50532323 182.40004885 75.05100926 172.78547315 70.6875 163.125 C70.39852844 162.48558472 70.10955688 161.84616943 69.81182861 161.18737793 C63.22569984 146.60225593 56.80680454 131.944172 50.38630676 117.28559875 C50.01132553 116.42951523 49.6363443 115.5734317 49.25 114.69140625 C48.88005417 113.84680344 48.51010834 113.00220062 48.12895203 112.13200378 C45.06528255 105.14111383 41.9788858 98.16064271 38.875 91.1875 C38.409729 90.14207031 37.94445801 89.09664063 37.46508789 88.01953125 C35.38314316 83.3444865 33.29902448 78.67041245 31.21435547 73.99658203 C26.46098378 63.33780042 21.72130626 52.67302614 17 42 C16.61342224 41.12631775 16.22684448 40.2526355 15.82855225 39.35247803 C13.42901039 33.92655283 11.03693961 28.49741769 8.65365601 23.06433105 C7.88783134 21.32057727 7.12012618 19.57764809 6.35049438 17.83557129 C5.28045298 15.412195 4.21745855 12.98584837 3.15625 10.55859375 C2.83520798 9.83532394 2.51416595 9.11205414 2.18339539 8.36686707 C0.89763279 5.40819663 0 3.26266421 0 0 Z " fill="#FBFCFC" transform="translate(66,170)"/>
<path d="M0 0 C6.93 0 13.86 0 21 0 C22.051875 2.248125 23.10375 4.49625 24.1875 6.8125 C24.5074292 7.49546143 24.8273584 8.17842285 25.15698242 8.88208008 C29.67091635 18.54294252 34.01609345 28.27283793 38.27484131 38.04873657 C42.77388619 48.37483431 47.29834066 58.68940493 51.859375 68.98828125 C52.27472504 69.92646698 52.69007507 70.86465271 53.11801147 71.83126831 C55.15988113 76.44256847 57.2037812 81.05295436 59.25048828 85.66210938 C63.36190808 94.93563374 67.40611915 104.23083202 71.29598999 113.59980774 C73.57268681 119.06587781 76.02522052 124.43139674 78.56155396 129.78106689 C80.74363139 134.39964065 82.73901922 139.07195179 84.66796875 143.80078125 C85.70540251 146.29244768 86.77020395 148.7632057 87.86328125 151.23046875 C88.34667969 152.32210327 88.34667969 152.32210327 88.83984375 153.43579102 C89.47875444 154.87382118 90.12059318 156.31055467 90.765625 157.74584961 C93 162.78126194 93 162.78126194 93 165 C93.99 165 94.98 165 96 165 C96.37769531 163.77925781 96.75539063 162.55851563 97.14453125 161.30078125 C99.22652611 155.06934761 101.96352349 149.15951615 104.6875 143.1875 C105.56246081 141.25452878 106.4356399 139.32075855 107.30877686 137.38696289 C107.92356769 136.02557875 108.53885147 134.66441712 109.15460205 133.3034668 C112.67966887 125.50950962 116.1537726 117.69304876 119.625 109.875 C119.95530212 109.13149292 120.28560425 108.38798584 120.62591553 107.62194824 C128.20369756 90.5638442 135.74494835 73.48959844 143.28355408 56.41415405 C146.30550048 49.5702018 149.33185446 42.72820673 152.359375 35.88671875 C153.67001968 32.92403082 154.98058151 29.96130625 156.29110718 26.99856567 C157.13246031 25.09696341 157.97411028 23.19549246 158.81607056 21.29415894 C159.98364678 18.65739555 161.15014094 16.02015592 162.31640625 13.3828125 C162.66133118 12.60463669 163.0062561 11.82646088 163.3616333 11.02470398 C163.68130066 10.30128311 164.00096802 9.57786224 164.33032227 8.83251953 C164.60610611 8.20942902 164.88188995 7.5863385 165.16603088 6.94436646 C166.15154627 4.6466758 167.07147704 2.3213074 168 0 C174.6 0 181.2 0 188 0 C186.87497801 6.75013194 186.87497801 6.75013194 185.37695312 10.12744141 C185.04570435 10.88328522 184.71445557 11.63912903 184.37316895 12.4178772 C184.01283569 13.22099335 183.65250244 14.0241095 183.28125 14.8515625 C182.9044812 15.70567719 182.5277124 16.55979187 182.13952637 17.43978882 C180.93276361 20.17108442 179.71649965 22.89802941 178.5 25.625 C177.71292557 27.40337329 176.92646197 29.18201705 176.140625 30.9609375 C172.28033478 39.68662462 168.37656281 48.39239948 164.453125 57.08984375 C160.36355953 66.15716155 156.35664568 75.25931167 152.37164307 84.37298584 C146.6751984 97.39728336 140.95254113 110.40878815 135.125 123.375 C134.60655518 124.5285498 134.08811035 125.68209961 133.55395508 126.87060547 C132.53659942 129.13336422 131.5191057 131.3960609 130.50146484 133.65869141 C121.80017801 153.02223801 113.31406655 172.4678401 105 192 C98.07 192 91.14 192 84 192 C81.6580716 187.00388608 79.32494687 182.00401166 77 177 C76.60345215 176.14776855 76.2069043 175.29553711 75.79833984 174.41748047 C69.94974623 161.82628418 64.29691271 149.16004948 58.80541992 136.4095459 C54.73793048 126.96720279 50.59537557 117.56250159 46.375 108.1875 C39.14577282 92.12243066 32.02990939 76.00993807 25.03417969 59.84179688 C21.95589874 52.73014858 18.87023351 45.63330948 15.5625 38.625 C12.33113419 31.76706537 9.21054443 24.86224908 6.125 17.9375 C5.63588135 16.85355957 5.1467627 15.76961914 4.64282227 14.65283203 C3.95724243 13.10571533 3.95724243 13.10571533 3.2578125 11.52734375 C2.8467627 10.60687256 2.43571289 9.68640137 2.01220703 8.73803711 C1 6 1 6 0 0 Z " fill="#FBFCFC" transform="translate(258,170)"/>
</svg>
